<svg xmlns="http://www.w3.org/2000/svg" width="597" height="642" viewBox="0 0 597 642">
  <defs>
    <style>
      .cls-1 {
        fill: #202242;
        fill-rule: evenodd;
        opacity: 0.03;
      }
    </style>
  </defs>
  <path class="cls-1" d="M539.245,220.547a57.434,57.434,0,0,1-34.931-11.806L392.9,291.707a103.246,103.246,0,0,1-11.264,80.524l95.417,79.135a57.8,57.8,0,1,1-20.441,24.648l-95.6-79.29a103.035,103.035,0,0,1-51.129,24.1V528.712a57.749,57.749,0,1,1-32.011,0V421.06a103.108,103.108,0,0,1-56.952-28.452L111.82,473.841a57.885,57.885,0,1,1-19.134-25.673l109.089-81.23a103.148,103.148,0,0,1-1.82-92.622L105.05,195.6a57.792,57.792,0,1,1,20.442-24.647l92.683,76.87a103.2,103.2,0,0,1,59.013-31.119V113.288a57.749,57.749,0,1,1,32.011,0V216.709a103.511,103.511,0,0,1,70.165,45.152L485.18,183.068A57.743,57.743,0,1,1,539.245,220.547ZM509.532,524.855a25.75,25.75,0,1,0-25.743-25.748A25.771,25.771,0,0,0,509.532,524.855ZM78.4,478.827c-0.011-.014-0.023-0.026-0.033-0.04s-0.02-.031-0.031-0.046A25.459,25.459,0,1,0,78.4,478.827ZM268.133,584.212a25.741,25.741,0,1,0,25.738-25.751A25.771,25.771,0,0,0,268.133,584.212ZM72.562,122.112A25.751,25.751,0,1,0,98.31,147.863,25.773,25.773,0,0,0,72.562,122.112ZM318.931,57.788a25.74,25.74,0,1,0-25.737,25.751A25.772,25.772,0,0,0,318.931,57.788Zm41.1,236.167a15.917,15.917,0,0,1-1.651-4.013A70.163,70.163,0,1,0,360.027,293.955ZM539.245,137.021a25.7,25.7,0,0,0-20.653,41.057c0.012,0.016.025,0.029,0.036,0.044s0.018,0.028.028,0.042A25.728,25.728,0,1,0,539.245,137.021Z"/>
</svg>
