<svg xmlns="http://www.w3.org/2000/svg" width="168" height="169" viewBox="0 0 168 169">
  <defs>
    <style>
      .cls-1 {
        fill: #fff;
        fill-rule: evenodd;
      }
    </style>
  </defs>
  <path class="cls-1" d="M462.96,1189.87H401.312v30.52H440.62a2.305,2.305,0,1,1,0,4.61H357.38a2.305,2.305,0,1,1,0-4.61h39.308v-30.52H335.04A20.048,20.048,0,0,1,315,1169.86V1107.2a4.843,4.843,0,0,1,.029-0.51c0-.04.014-0.08,0.02-0.13,0.017-.12.037-0.24,0.064-0.37,0.011-.05.026-0.09,0.038-0.14,0.03-.12.062-0.23,0.1-0.34,0.017-.05.037-0.1,0.056-0.15,0.041-.11.085-0.21,0.134-0.32,0.014-.03.024-0.06,0.039-0.09l23.118-46.59a4.624,4.624,0,0,1,4.144-2.56H455.254a4.624,4.624,0,0,1,4.144,2.56l23.118,46.59c0.015,0.03.025,0.06,0.039,0.09,0.049,0.11.093,0.21,0.134,0.32,0.019,0.05.038,0.1,0.056,0.15,0.038,0.11.07,0.22,0.1,0.34,0.012,0.05.027,0.09,0.038,0.14,0.027,0.13.047,0.25,0.064,0.37,0.006,0.05.015,0.09,0.02,0.13a4.843,4.843,0,0,1,.029.51v62.66A20.048,20.048,0,0,1,462.96,1189.87Zm-10.574-124.64H345.614l-18.536,37.35H470.922Zm21.363,46.59h-149.5v29.88h149.5v-29.88Zm0,39.11h-149.5v18.93a10.8,10.8,0,0,0,10.789,10.78H462.96a10.8,10.8,0,0,0,10.789-10.78v-18.93ZM455.5,1170.47a4.365,4.365,0,1,1,4.374-4.37A4.377,4.377,0,0,1,455.5,1170.47Zm0-5.66a1.29,1.29,0,1,0,1.292,1.29A1.293,1.293,0,0,0,455.5,1164.81Zm-17.716,5.66a4.365,4.365,0,1,1,4.373-4.37A4.377,4.377,0,0,1,437.788,1170.47Zm0-5.66a1.29,1.29,0,1,0,1.291,1.29A1.294,1.294,0,0,0,437.788,1164.81Zm-17.946,5.66a4.365,4.365,0,1,1,4.374-4.37A4.376,4.376,0,0,1,419.842,1170.47Zm0-5.66a1.29,1.29,0,1,0,1.292,1.29A1.293,1.293,0,0,0,419.842,1164.81Zm-79.151,12.1a10.805,10.805,0,1,1,10.825-10.81A10.829,10.829,0,0,1,340.691,1176.91Zm0-17a6.19,6.19,0,1,0,6.2,6.19A6.2,6.2,0,0,0,340.691,1159.91Zm0-44.74a10.805,10.805,0,1,1-10.824,10.8A10.828,10.828,0,0,1,340.691,1115.17Zm0,16.99a6.19,6.19,0,1,0-6.2-6.19A6.2,6.2,0,0,0,340.691,1132.16Zm79.151-10.55a4.365,4.365,0,1,1-4.373,4.36A4.375,4.375,0,0,1,419.842,1121.61Zm0,5.65a1.29,1.29,0,1,0-1.291-1.29A1.287,1.287,0,0,0,419.842,1127.26Zm17.946-5.65a4.365,4.365,0,1,1-4.374,4.36A4.374,4.374,0,0,1,437.788,1121.61Zm0,5.65a1.29,1.29,0,1,0-1.292-1.29A1.286,1.286,0,0,0,437.788,1127.26Zm17.716-5.65a4.365,4.365,0,1,1-4.374,4.36A4.375,4.375,0,0,1,455.5,1121.61Zm0,5.65a1.29,1.29,0,1,0-1.291-1.29A1.287,1.287,0,0,0,455.5,1127.26Zm-134.335,93.13h9.76a2.305,2.305,0,1,1,0,4.61h-9.76A2.305,2.305,0,1,1,321.169,1220.39Zm17.725,0h9.761a2.305,2.305,0,1,1,0,4.61h-9.761A2.305,2.305,0,1,1,338.894,1220.39Zm109.94,0h9.76a2.305,2.305,0,1,1,0,4.61h-9.76A2.305,2.305,0,1,1,448.834,1220.39Zm16.7,0h9.76a2.305,2.305,0,1,1,0,4.61h-9.76A2.305,2.305,0,1,1,465.53,1220.39Z" transform="translate(-315 -1056)"/>
</svg>
